<svg xmlns="http://www.w3.org/2000/svg" width="24" height="24" viewBox="0 0 24 24" fill="none">
<g clip-path="url(#clip0_3129_18857)">
<path d="M0.566625 8.34794C0.199031 9.49956 -4.68667e-05 10.7264 8.276e-09 12C-4.68667e-05 13.2736 0.199078 14.5005 0.566672 15.6521L12 16.174L23.4333 15.6522C23.8009 14.5006 24 13.2736 24 12.0001C24 10.7265 23.8009 9.49956 23.4333 8.34789L12 7.82617L0.566625 8.34794Z" fill="#F0F0F0"/>
<path d="M23.4332 8.34789L11.9999 7.82617L0.5665 8.34789C0.457563 8.68933 0.363766 9.03747 0.285156 9.39138H23.7144C23.6359 9.03742 23.5421 8.68923 23.4332 8.34789Z" fill="#D80027"/>
<path d="M0.285156 14.6089C0.363672 14.9628 0.457469 15.3109 0.566406 15.6523L0.567531 15.6524L11.9997 16.1741L23.433 15.6524C23.542 15.3109 23.6357 14.9628 23.7143 14.6089H0.285156Z" fill="#D80027"/>
<path d="M11.9997 24.0002C17.3536 24.0002 21.8878 20.4938 23.433 15.6523H0.566406C2.11164 20.4937 6.64595 24.0002 11.9997 24.0002Z" fill="#009B77"/>
<path d="M11.9997 4.69973e-10C6.64595 4.68755e-05 2.11173 3.50644 0.566406 8.34783L23.433 8.34787C21.8879 3.50639 17.3536 -4.68745e-05 11.9997 4.69973e-10Z" fill="#338AF3"/>
<path d="M5.48376 4.95667C5.48376 3.83275 6.27365 2.89384 7.32848 2.6635C7.16638 2.62806 6.99815 2.60889 6.82537 2.60889C5.52871 2.60889 4.47754 3.66001 4.47754 4.95671C4.47754 6.25342 5.52862 7.30454 6.82537 7.30454C6.99815 7.30454 7.16634 7.28532 7.32848 7.24993C6.2737 7.0195 5.48376 6.08059 5.48376 4.95667Z" fill="#F0F0F0"/>
<path d="M8.71628 6.02393L8.87519 6.51307H9.3895L8.97344 6.81541L9.13234 7.30455L8.71628 7.00225L8.30012 7.30455L8.45908 6.81541L8.04297 6.51307H8.55728L8.71628 6.02393Z" fill="#F0F0F0"/>
<path d="M10.3578 6.02393L10.5167 6.51307H11.0311L10.6149 6.81541L10.7739 7.30455L10.3578 7.00225L9.94168 7.30455L10.1006 6.81541L9.68457 6.51307H10.1988L10.3578 6.02393Z" fill="#F0F0F0"/>
<path d="M11.9995 6.02393L12.1584 6.51307H12.6727L12.2566 6.81541L12.4155 7.30455L11.9995 7.00225L11.5833 7.30455L11.7423 6.81541L11.3262 6.51307H11.8405L11.9995 6.02393Z" fill="#F0F0F0"/>
<path d="M13.6411 6.02393L13.8 6.51307H14.3143L13.8982 6.81541L14.0572 7.30455L13.6411 7.00225L13.2249 7.30455L13.3839 6.81541L12.9678 6.51307H13.4821L13.6411 6.02393Z" fill="#F0F0F0"/>
<path d="M15.2826 6.02393L15.4415 6.51307H15.9559L15.5398 6.81541L15.6987 7.30455L15.2826 7.00225L14.8665 7.30455L15.0254 6.81541L14.6094 6.51307H15.1236L15.2826 6.02393Z" fill="#F0F0F0"/>
<path d="M10.3578 4.31641L10.5167 4.8055H11.0311L10.6149 5.10789L10.7739 5.59698L10.3578 5.29469L9.94168 5.59698L10.1006 5.10789L9.68457 4.8055H10.1988L10.3578 4.31641Z" fill="#F0F0F0"/>
<path d="M11.9995 4.31641L12.1584 4.8055H12.6727L12.2566 5.10789L12.4155 5.59698L11.9995 5.29469L11.5833 5.59698L11.7423 5.10789L11.3262 4.8055H11.8405L11.9995 4.31641Z" fill="#F0F0F0"/>
<path d="M13.6411 4.31641L13.8 4.8055H14.3143L13.8982 5.10789L14.0572 5.59698L13.6411 5.29469L13.2249 5.59698L13.3839 5.10789L12.9678 4.8055H13.4821L13.6411 4.31641Z" fill="#F0F0F0"/>
<path d="M15.2826 4.31641L15.4415 4.8055H15.9559L15.5398 5.10789L15.6987 5.59698L15.2826 5.29469L14.8665 5.59698L15.0254 5.10789L14.6094 4.8055H15.1236L15.2826 4.31641Z" fill="#F0F0F0"/>
<path d="M11.9995 2.60889L12.1584 3.09807H12.6727L12.2566 3.40037L12.4155 3.88956L11.9995 3.58726L11.5833 3.88956L11.7423 3.40037L11.3262 3.09807H11.8405L11.9995 2.60889Z" fill="#F0F0F0"/>
<path d="M13.6411 2.60889L13.8 3.09807H14.3143L13.8982 3.40037L14.0572 3.88956L13.6411 3.58726L13.2249 3.88956L13.3839 3.40037L12.9678 3.09807H13.4821L13.6411 2.60889Z" fill="#F0F0F0"/>
<path d="M15.2826 2.60889L15.4415 3.09807H15.9559L15.5398 3.40037L15.6987 3.88956L15.2826 3.58726L14.8665 3.88956L15.0254 3.40037L14.6094 3.09807H15.1236L15.2826 2.60889Z" fill="#F0F0F0"/>
</g>
<defs>
<clipPath id="clip0_3129_18857">
<rect width="24" height="24" fill="white"/>
</clipPath>
</defs>
</svg>